%TF.GenerationSoftware,KiCad,Pcbnew,8.0.7*%
%TF.CreationDate,2025-12-01T14:19:42-05:00*%
%TF.ProjectId,Reflectance_Adapter,5265666c-6563-4746-916e-63655f416461,rev?*%
%TF.SameCoordinates,Original*%
%TF.FileFunction,Copper,L1,Top*%
%TF.FilePolarity,Positive*%
%FSLAX46Y46*%
G04 Gerber Fmt 4.6, Leading zero omitted, Abs format (unit mm)*
G04 Created by KiCad (PCBNEW 8.0.7) date 2025-12-01 14:19:42*
%MOMM*%
%LPD*%
G01*
G04 APERTURE LIST*
%TA.AperFunction,ComponentPad*%
%ADD10R,1.700000X1.700000*%
%TD*%
%TA.AperFunction,ComponentPad*%
%ADD11O,1.700000X1.700000*%
%TD*%
%TA.AperFunction,ViaPad*%
%ADD12C,0.600000*%
%TD*%
%TA.AperFunction,Conductor*%
%ADD13C,0.200000*%
%TD*%
%TA.AperFunction,Conductor*%
%ADD14C,0.249936*%
%TD*%
%TA.AperFunction,Conductor*%
%ADD15C,0.750062*%
%TD*%
G04 APERTURE END LIST*
D10*
%TO.P,J1,1,Pin_1*%
%TO.N,+3V3*%
X166700000Y-96000000D03*
D11*
%TO.P,J1,2,Pin_2*%
%TO.N,GND*%
X164160000Y-96000000D03*
%TO.P,J1,3,Pin_3*%
%TO.N,/SDA*%
X161620000Y-96000000D03*
%TO.P,J1,4,Pin_4*%
%TO.N,/SCL*%
X159080000Y-96000000D03*
%TD*%
D10*
%TO.P,J4,1,Pin_1*%
%TO.N,unconnected-(J4-Pin_1-Pad1)*%
X129100000Y-97100000D03*
D11*
%TO.P,J4,2,Pin_2*%
%TO.N,unconnected-(J4-Pin_2-Pad2)*%
X131640000Y-97100000D03*
%TO.P,J4,3,Pin_3*%
%TO.N,unconnected-(J4-Pin_3-Pad3)*%
X134180000Y-97100000D03*
%TO.P,J4,4,Pin_4*%
%TO.N,unconnected-(J4-Pin_4-Pad4)*%
X136720000Y-97100000D03*
%TD*%
D10*
%TO.P,J2,1,Pin_1*%
%TO.N,/LED_ctrl*%
X141154000Y-104959999D03*
D11*
%TO.P,J2,2,Pin_2*%
%TO.N,/2*%
X138614000Y-104959999D03*
%TO.P,J2,3,Pin_3*%
%TO.N,/4*%
X136074000Y-104959999D03*
%TO.P,J2,4,Pin_4*%
%TO.N,/6*%
X133534000Y-104959999D03*
%TO.P,J2,5,Pin_5*%
%TO.N,/8*%
X130994000Y-104959999D03*
%TO.P,J2,6,Pin_6*%
%TO.N,/10*%
X128454000Y-104959999D03*
%TO.P,J2,7,Pin_7*%
%TO.N,/12*%
X125914000Y-104959999D03*
%TO.P,J2,8,Pin_8*%
%TO.N,/14*%
X123374000Y-104959999D03*
%TD*%
D10*
%TO.P,J3,1,Pin_1*%
%TO.N,GND*%
X146242262Y-107537642D03*
D11*
%TO.P,J3,2,Pin_2*%
%TO.N,+3V3*%
X143702262Y-107537642D03*
%TO.P,J3,3,Pin_3*%
%TO.N,/LED_ctrl*%
X141162262Y-107537642D03*
%TO.P,J3,4,Pin_4*%
%TO.N,/1*%
X138622262Y-107537642D03*
%TO.P,J3,5,Pin_5*%
%TO.N,/3*%
X136082262Y-107537642D03*
%TO.P,J3,6,Pin_6*%
%TO.N,/5*%
X133542262Y-107537642D03*
%TO.P,J3,7,Pin_7*%
%TO.N,/7*%
X131002262Y-107537642D03*
%TO.P,J3,8,Pin_8*%
%TO.N,/9*%
X128462262Y-107537642D03*
%TO.P,J3,9,Pin_9*%
%TO.N,/11*%
X125922262Y-107537642D03*
%TO.P,J3,10,Pin_10*%
%TO.N,/13*%
X123382262Y-107537642D03*
%TO.P,J3,11,Pin_11*%
%TO.N,/15*%
X120842262Y-107537642D03*
%TD*%
D12*
%TO.N,/SCL*%
X109900000Y-93600000D03*
%TO.N,/SDA*%
X109933839Y-92450000D03*
%TO.N,+3V3*%
X108800000Y-90700000D03*
%TO.N,/14*%
X106241920Y-104858080D03*
%TO.N,/10*%
X108200000Y-102700000D03*
%TO.N,/12*%
X107268153Y-103868153D03*
%TD*%
D13*
%TO.N,/SCL*%
X156680000Y-93600000D02*
X159080000Y-96000000D01*
X109900000Y-93600000D02*
X156680000Y-93600000D01*
D14*
%TO.N,/SDA*%
X158070000Y-92450000D02*
X161620000Y-96000000D01*
X109933839Y-92450000D02*
X158070000Y-92450000D01*
D15*
%TO.N,+3V3*%
X145127293Y-106112611D02*
X143702262Y-107537642D01*
D14*
X108800000Y-90700000D02*
X161400000Y-90700000D01*
D15*
X156587389Y-106112611D02*
X145127293Y-106112611D01*
X166700000Y-96000000D02*
X156587389Y-106112611D01*
D14*
X161400000Y-90700000D02*
X166700000Y-96000000D01*
%TO.N,/14*%
X106141920Y-104858080D02*
X106243839Y-104959999D01*
X106343839Y-104959999D02*
X123374000Y-104959999D01*
%TO.N,/10*%
X126194001Y-102700000D02*
X128454000Y-104959999D01*
X108200000Y-102700000D02*
X126194001Y-102700000D01*
%TO.N,/12*%
X107268153Y-103868153D02*
X107351275Y-103785031D01*
X124739032Y-103785031D02*
X125914000Y-104959999D01*
X107351275Y-103785031D02*
X124739032Y-103785031D01*
%TD*%
M02*
