M48
; DRILL file {KiCad 8.0.7} date 2025-10-15T10:59:43-0400
; FORMAT={-:-/ absolute / inch / decimal}
; #@! TF.CreationDate,2025-10-15T10:59:43-04:00
; #@! TF.GenerationSoftware,Kicad,Pcbnew,8.0.7
; #@! TF.FileFunction,Plated,1,2,PTH
FMAT,2
INCH
; #@! TA.AperFunction,Plated,PTH,ViaDrill
T1C0.0118
; #@! TA.AperFunction,Plated,PTH,ComponentDrill
T2C0.0394
%
G90
G05
T1
X4.1828Y-4.1283
X4.2232Y-4.0893
X4.2598Y-4.0433
X4.2835Y-3.5709
X4.3228Y-3.6693
X4.3543Y-3.6955
T2
X4.7576Y-4.2338
X4.8572Y-4.1323
X4.8576Y-4.2338
X4.9572Y-4.1323
X4.9576Y-4.2338
X5.0572Y-4.1323
X5.0576Y-4.2338
X5.0827Y-3.8228
X5.1572Y-4.1323
X5.1576Y-4.2338
X5.1827Y-3.8228
X5.2572Y-4.1323
X5.2576Y-4.2338
X5.2827Y-3.8228
X5.3572Y-4.1323
X5.3576Y-4.2338
X5.3827Y-3.8228
X5.4572Y-4.1323
X5.4576Y-4.2338
X5.5572Y-4.1323
X5.5576Y-4.2338
X5.6576Y-4.2338
X5.7576Y-4.2338
X6.263Y-3.7795
X6.363Y-3.7795
X6.463Y-3.7795
X6.563Y-3.7795
M30
