%TF.GenerationSoftware,KiCad,Pcbnew,8.0.7*%
%TF.CreationDate,2025-10-15T10:59:08-04:00*%
%TF.ProjectId,Reflectance_Adapter,5265666c-6563-4746-916e-63655f416461,rev?*%
%TF.SameCoordinates,Original*%
%TF.FileFunction,Soldermask,Bot*%
%TF.FilePolarity,Negative*%
%FSLAX46Y46*%
G04 Gerber Fmt 4.6, Leading zero omitted, Abs format (unit mm)*
G04 Created by KiCad (PCBNEW 8.0.7) date 2025-10-15 10:59:08*
%MOMM*%
%LPD*%
G01*
G04 APERTURE LIST*
G04 Aperture macros list*
%AMRoundRect*
0 Rectangle with rounded corners*
0 $1 Rounding radius*
0 $2 $3 $4 $5 $6 $7 $8 $9 X,Y pos of 4 corners*
0 Add a 4 corners polygon primitive as box body*
4,1,4,$2,$3,$4,$5,$6,$7,$8,$9,$2,$3,0*
0 Add four circle primitives for the rounded corners*
1,1,$1+$1,$2,$3*
1,1,$1+$1,$4,$5*
1,1,$1+$1,$6,$7*
1,1,$1+$1,$8,$9*
0 Add four rect primitives between the rounded corners*
20,1,$1+$1,$2,$3,$4,$5,0*
20,1,$1+$1,$4,$5,$6,$7,0*
20,1,$1+$1,$6,$7,$8,$9,0*
20,1,$1+$1,$8,$9,$2,$3,0*%
G04 Aperture macros list end*
%ADD10R,1.700000X1.700000*%
%ADD11O,1.700000X1.700000*%
%ADD12RoundRect,0.100000X0.637500X0.100000X-0.637500X0.100000X-0.637500X-0.100000X0.637500X-0.100000X0*%
G04 APERTURE END LIST*
D10*
%TO.C,J1*%
X166700000Y-96000000D03*
D11*
X164160000Y-96000000D03*
X161620000Y-96000000D03*
X159080000Y-96000000D03*
%TD*%
D10*
%TO.C,J4*%
X129100000Y-97100000D03*
D11*
X131640000Y-97100000D03*
X134180000Y-97100000D03*
X136720000Y-97100000D03*
%TD*%
D10*
%TO.C,J2*%
X141154000Y-104959999D03*
D11*
X138614000Y-104959999D03*
X136074000Y-104959999D03*
X133534000Y-104959999D03*
X130994000Y-104959999D03*
X128454000Y-104959999D03*
X125914000Y-104959999D03*
X123374000Y-104959999D03*
%TD*%
D10*
%TO.C,J3*%
X146242262Y-107537642D03*
D11*
X143702262Y-107537642D03*
X141162262Y-107537642D03*
X138622262Y-107537642D03*
X136082262Y-107537642D03*
X133542262Y-107537642D03*
X131002262Y-107537642D03*
X128462262Y-107537642D03*
X125922262Y-107537642D03*
X123382262Y-107537642D03*
X120842262Y-107537642D03*
%TD*%
D12*
%TO.C,U1*%
X113500000Y-91800000D03*
X113500000Y-92450000D03*
X113500000Y-93100000D03*
X113500000Y-93750000D03*
X113500000Y-94400000D03*
X113500000Y-95050000D03*
X113500000Y-95700000D03*
X113500000Y-96350000D03*
X113500000Y-97000000D03*
X113500000Y-97650000D03*
X113500000Y-98300000D03*
X113500000Y-98950000D03*
X107775000Y-98950000D03*
X107775000Y-98300000D03*
X107775000Y-97650000D03*
X107775000Y-97000000D03*
X107775000Y-96350000D03*
X107775000Y-95700000D03*
X107775000Y-95050000D03*
X107775000Y-94400000D03*
X107775000Y-93750000D03*
X107775000Y-93100000D03*
X107775000Y-92450000D03*
X107775000Y-91800000D03*
%TD*%
M02*
