%TF.GenerationSoftware,KiCad,Pcbnew,8.0.7*%
%TF.CreationDate,2025-12-01T14:19:42-05:00*%
%TF.ProjectId,Reflectance_Adapter,5265666c-6563-4746-916e-63655f416461,rev?*%
%TF.SameCoordinates,Original*%
%TF.FileFunction,Legend,Top*%
%TF.FilePolarity,Positive*%
%FSLAX46Y46*%
G04 Gerber Fmt 4.6, Leading zero omitted, Abs format (unit mm)*
G04 Created by KiCad (PCBNEW 8.0.7) date 2025-12-01 14:19:42*
%MOMM*%
%LPD*%
G01*
G04 APERTURE LIST*
%ADD10C,0.152400*%
%ADD11C,0.150000*%
%ADD12C,0.120000*%
G04 APERTURE END LIST*
D10*
X120662167Y-110569694D02*
X120090739Y-110569694D01*
X120376453Y-110569694D02*
X120376453Y-109569694D01*
X120376453Y-109569694D02*
X120281215Y-109712551D01*
X120281215Y-109712551D02*
X120185977Y-109807789D01*
X120185977Y-109807789D02*
X120090739Y-109855408D01*
X121566929Y-109569694D02*
X121090739Y-109569694D01*
X121090739Y-109569694D02*
X121043120Y-110045884D01*
X121043120Y-110045884D02*
X121090739Y-109998265D01*
X121090739Y-109998265D02*
X121185977Y-109950646D01*
X121185977Y-109950646D02*
X121424072Y-109950646D01*
X121424072Y-109950646D02*
X121519310Y-109998265D01*
X121519310Y-109998265D02*
X121566929Y-110045884D01*
X121566929Y-110045884D02*
X121614548Y-110141122D01*
X121614548Y-110141122D02*
X121614548Y-110379217D01*
X121614548Y-110379217D02*
X121566929Y-110474455D01*
X121566929Y-110474455D02*
X121519310Y-110522075D01*
X121519310Y-110522075D02*
X121424072Y-110569694D01*
X121424072Y-110569694D02*
X121185977Y-110569694D01*
X121185977Y-110569694D02*
X121090739Y-110522075D01*
X121090739Y-110522075D02*
X121043120Y-110474455D01*
X157154694Y-100166667D02*
X156678503Y-100500000D01*
X157154694Y-100738095D02*
X156154694Y-100738095D01*
X156154694Y-100738095D02*
X156154694Y-100357143D01*
X156154694Y-100357143D02*
X156202313Y-100261905D01*
X156202313Y-100261905D02*
X156249932Y-100214286D01*
X156249932Y-100214286D02*
X156345170Y-100166667D01*
X156345170Y-100166667D02*
X156488027Y-100166667D01*
X156488027Y-100166667D02*
X156583265Y-100214286D01*
X156583265Y-100214286D02*
X156630884Y-100261905D01*
X156630884Y-100261905D02*
X156678503Y-100357143D01*
X156678503Y-100357143D02*
X156678503Y-100738095D01*
X157107075Y-99357143D02*
X157154694Y-99452381D01*
X157154694Y-99452381D02*
X157154694Y-99642857D01*
X157154694Y-99642857D02*
X157107075Y-99738095D01*
X157107075Y-99738095D02*
X157011836Y-99785714D01*
X157011836Y-99785714D02*
X156630884Y-99785714D01*
X156630884Y-99785714D02*
X156535646Y-99738095D01*
X156535646Y-99738095D02*
X156488027Y-99642857D01*
X156488027Y-99642857D02*
X156488027Y-99452381D01*
X156488027Y-99452381D02*
X156535646Y-99357143D01*
X156535646Y-99357143D02*
X156630884Y-99309524D01*
X156630884Y-99309524D02*
X156726122Y-99309524D01*
X156726122Y-99309524D02*
X156821360Y-99785714D01*
X156488027Y-99023809D02*
X156488027Y-98642857D01*
X157154694Y-98880952D02*
X156297551Y-98880952D01*
X156297551Y-98880952D02*
X156202313Y-98833333D01*
X156202313Y-98833333D02*
X156154694Y-98738095D01*
X156154694Y-98738095D02*
X156154694Y-98642857D01*
X157154694Y-98166666D02*
X157107075Y-98261904D01*
X157107075Y-98261904D02*
X157011836Y-98309523D01*
X157011836Y-98309523D02*
X156154694Y-98309523D01*
X157107075Y-97404761D02*
X157154694Y-97499999D01*
X157154694Y-97499999D02*
X157154694Y-97690475D01*
X157154694Y-97690475D02*
X157107075Y-97785713D01*
X157107075Y-97785713D02*
X157011836Y-97833332D01*
X157011836Y-97833332D02*
X156630884Y-97833332D01*
X156630884Y-97833332D02*
X156535646Y-97785713D01*
X156535646Y-97785713D02*
X156488027Y-97690475D01*
X156488027Y-97690475D02*
X156488027Y-97499999D01*
X156488027Y-97499999D02*
X156535646Y-97404761D01*
X156535646Y-97404761D02*
X156630884Y-97357142D01*
X156630884Y-97357142D02*
X156726122Y-97357142D01*
X156726122Y-97357142D02*
X156821360Y-97833332D01*
X157107075Y-96499999D02*
X157154694Y-96595237D01*
X157154694Y-96595237D02*
X157154694Y-96785713D01*
X157154694Y-96785713D02*
X157107075Y-96880951D01*
X157107075Y-96880951D02*
X157059455Y-96928570D01*
X157059455Y-96928570D02*
X156964217Y-96976189D01*
X156964217Y-96976189D02*
X156678503Y-96976189D01*
X156678503Y-96976189D02*
X156583265Y-96928570D01*
X156583265Y-96928570D02*
X156535646Y-96880951D01*
X156535646Y-96880951D02*
X156488027Y-96785713D01*
X156488027Y-96785713D02*
X156488027Y-96595237D01*
X156488027Y-96595237D02*
X156535646Y-96499999D01*
X156488027Y-96214284D02*
X156488027Y-95833332D01*
X156154694Y-96071427D02*
X157011836Y-96071427D01*
X157011836Y-96071427D02*
X157107075Y-96023808D01*
X157107075Y-96023808D02*
X157154694Y-95928570D01*
X157154694Y-95928570D02*
X157154694Y-95833332D01*
X157154694Y-95357141D02*
X157107075Y-95452379D01*
X157107075Y-95452379D02*
X157059455Y-95499998D01*
X157059455Y-95499998D02*
X156964217Y-95547617D01*
X156964217Y-95547617D02*
X156678503Y-95547617D01*
X156678503Y-95547617D02*
X156583265Y-95499998D01*
X156583265Y-95499998D02*
X156535646Y-95452379D01*
X156535646Y-95452379D02*
X156488027Y-95357141D01*
X156488027Y-95357141D02*
X156488027Y-95214284D01*
X156488027Y-95214284D02*
X156535646Y-95119046D01*
X156535646Y-95119046D02*
X156583265Y-95071427D01*
X156583265Y-95071427D02*
X156678503Y-95023808D01*
X156678503Y-95023808D02*
X156964217Y-95023808D01*
X156964217Y-95023808D02*
X157059455Y-95071427D01*
X157059455Y-95071427D02*
X157107075Y-95119046D01*
X157107075Y-95119046D02*
X157154694Y-95214284D01*
X157154694Y-95214284D02*
X157154694Y-95357141D01*
X157154694Y-94595236D02*
X156488027Y-94595236D01*
X156678503Y-94595236D02*
X156583265Y-94547617D01*
X156583265Y-94547617D02*
X156535646Y-94499998D01*
X156535646Y-94499998D02*
X156488027Y-94404760D01*
X156488027Y-94404760D02*
X156488027Y-94309522D01*
X157154694Y-93214283D02*
X156154694Y-93214283D01*
X156249932Y-92785712D02*
X156202313Y-92738093D01*
X156202313Y-92738093D02*
X156154694Y-92642855D01*
X156154694Y-92642855D02*
X156154694Y-92404760D01*
X156154694Y-92404760D02*
X156202313Y-92309522D01*
X156202313Y-92309522D02*
X156249932Y-92261903D01*
X156249932Y-92261903D02*
X156345170Y-92214284D01*
X156345170Y-92214284D02*
X156440408Y-92214284D01*
X156440408Y-92214284D02*
X156583265Y-92261903D01*
X156583265Y-92261903D02*
X157154694Y-92833331D01*
X157154694Y-92833331D02*
X157154694Y-92214284D01*
X157059455Y-91214284D02*
X157107075Y-91261903D01*
X157107075Y-91261903D02*
X157154694Y-91404760D01*
X157154694Y-91404760D02*
X157154694Y-91499998D01*
X157154694Y-91499998D02*
X157107075Y-91642855D01*
X157107075Y-91642855D02*
X157011836Y-91738093D01*
X157011836Y-91738093D02*
X156916598Y-91785712D01*
X156916598Y-91785712D02*
X156726122Y-91833331D01*
X156726122Y-91833331D02*
X156583265Y-91833331D01*
X156583265Y-91833331D02*
X156392789Y-91785712D01*
X156392789Y-91785712D02*
X156297551Y-91738093D01*
X156297551Y-91738093D02*
X156202313Y-91642855D01*
X156202313Y-91642855D02*
X156154694Y-91499998D01*
X156154694Y-91499998D02*
X156154694Y-91404760D01*
X156154694Y-91404760D02*
X156202313Y-91261903D01*
X156202313Y-91261903D02*
X156249932Y-91214284D01*
X143022075Y-99709260D02*
X143069694Y-99566403D01*
X143069694Y-99566403D02*
X143069694Y-99328308D01*
X143069694Y-99328308D02*
X143022075Y-99233070D01*
X143022075Y-99233070D02*
X142974455Y-99185451D01*
X142974455Y-99185451D02*
X142879217Y-99137832D01*
X142879217Y-99137832D02*
X142783979Y-99137832D01*
X142783979Y-99137832D02*
X142688741Y-99185451D01*
X142688741Y-99185451D02*
X142641122Y-99233070D01*
X142641122Y-99233070D02*
X142593503Y-99328308D01*
X142593503Y-99328308D02*
X142545884Y-99518784D01*
X142545884Y-99518784D02*
X142498265Y-99614022D01*
X142498265Y-99614022D02*
X142450646Y-99661641D01*
X142450646Y-99661641D02*
X142355408Y-99709260D01*
X142355408Y-99709260D02*
X142260170Y-99709260D01*
X142260170Y-99709260D02*
X142164932Y-99661641D01*
X142164932Y-99661641D02*
X142117313Y-99614022D01*
X142117313Y-99614022D02*
X142069694Y-99518784D01*
X142069694Y-99518784D02*
X142069694Y-99280689D01*
X142069694Y-99280689D02*
X142117313Y-99137832D01*
X142403027Y-98280689D02*
X143069694Y-98280689D01*
X142403027Y-98709260D02*
X142926836Y-98709260D01*
X142926836Y-98709260D02*
X143022075Y-98661641D01*
X143022075Y-98661641D02*
X143069694Y-98566403D01*
X143069694Y-98566403D02*
X143069694Y-98423546D01*
X143069694Y-98423546D02*
X143022075Y-98328308D01*
X143022075Y-98328308D02*
X142974455Y-98280689D01*
X142403027Y-97804498D02*
X143403027Y-97804498D01*
X142450646Y-97804498D02*
X142403027Y-97709260D01*
X142403027Y-97709260D02*
X142403027Y-97518784D01*
X142403027Y-97518784D02*
X142450646Y-97423546D01*
X142450646Y-97423546D02*
X142498265Y-97375927D01*
X142498265Y-97375927D02*
X142593503Y-97328308D01*
X142593503Y-97328308D02*
X142879217Y-97328308D01*
X142879217Y-97328308D02*
X142974455Y-97375927D01*
X142974455Y-97375927D02*
X143022075Y-97423546D01*
X143022075Y-97423546D02*
X143069694Y-97518784D01*
X143069694Y-97518784D02*
X143069694Y-97709260D01*
X143069694Y-97709260D02*
X143022075Y-97804498D01*
X142403027Y-96899736D02*
X143403027Y-96899736D01*
X142450646Y-96899736D02*
X142403027Y-96804498D01*
X142403027Y-96804498D02*
X142403027Y-96614022D01*
X142403027Y-96614022D02*
X142450646Y-96518784D01*
X142450646Y-96518784D02*
X142498265Y-96471165D01*
X142498265Y-96471165D02*
X142593503Y-96423546D01*
X142593503Y-96423546D02*
X142879217Y-96423546D01*
X142879217Y-96423546D02*
X142974455Y-96471165D01*
X142974455Y-96471165D02*
X143022075Y-96518784D01*
X143022075Y-96518784D02*
X143069694Y-96614022D01*
X143069694Y-96614022D02*
X143069694Y-96804498D01*
X143069694Y-96804498D02*
X143022075Y-96899736D01*
X143069694Y-95852117D02*
X143022075Y-95947355D01*
X143022075Y-95947355D02*
X142974455Y-95994974D01*
X142974455Y-95994974D02*
X142879217Y-96042593D01*
X142879217Y-96042593D02*
X142593503Y-96042593D01*
X142593503Y-96042593D02*
X142498265Y-95994974D01*
X142498265Y-95994974D02*
X142450646Y-95947355D01*
X142450646Y-95947355D02*
X142403027Y-95852117D01*
X142403027Y-95852117D02*
X142403027Y-95709260D01*
X142403027Y-95709260D02*
X142450646Y-95614022D01*
X142450646Y-95614022D02*
X142498265Y-95566403D01*
X142498265Y-95566403D02*
X142593503Y-95518784D01*
X142593503Y-95518784D02*
X142879217Y-95518784D01*
X142879217Y-95518784D02*
X142974455Y-95566403D01*
X142974455Y-95566403D02*
X143022075Y-95614022D01*
X143022075Y-95614022D02*
X143069694Y-95709260D01*
X143069694Y-95709260D02*
X143069694Y-95852117D01*
X143069694Y-95090212D02*
X142403027Y-95090212D01*
X142593503Y-95090212D02*
X142498265Y-95042593D01*
X142498265Y-95042593D02*
X142450646Y-94994974D01*
X142450646Y-94994974D02*
X142403027Y-94899736D01*
X142403027Y-94899736D02*
X142403027Y-94804498D01*
X142403027Y-94614021D02*
X142403027Y-94233069D01*
X142069694Y-94471164D02*
X142926836Y-94471164D01*
X142926836Y-94471164D02*
X143022075Y-94423545D01*
X143022075Y-94423545D02*
X143069694Y-94328307D01*
X143069694Y-94328307D02*
X143069694Y-94233069D01*
X145562167Y-109517313D02*
X145466929Y-109469694D01*
X145466929Y-109469694D02*
X145324072Y-109469694D01*
X145324072Y-109469694D02*
X145181215Y-109517313D01*
X145181215Y-109517313D02*
X145085977Y-109612551D01*
X145085977Y-109612551D02*
X145038358Y-109707789D01*
X145038358Y-109707789D02*
X144990739Y-109898265D01*
X144990739Y-109898265D02*
X144990739Y-110041122D01*
X144990739Y-110041122D02*
X145038358Y-110231598D01*
X145038358Y-110231598D02*
X145085977Y-110326836D01*
X145085977Y-110326836D02*
X145181215Y-110422075D01*
X145181215Y-110422075D02*
X145324072Y-110469694D01*
X145324072Y-110469694D02*
X145419310Y-110469694D01*
X145419310Y-110469694D02*
X145562167Y-110422075D01*
X145562167Y-110422075D02*
X145609786Y-110374455D01*
X145609786Y-110374455D02*
X145609786Y-110041122D01*
X145609786Y-110041122D02*
X145419310Y-110041122D01*
X146038358Y-110469694D02*
X146038358Y-109469694D01*
X146038358Y-109469694D02*
X146609786Y-110469694D01*
X146609786Y-110469694D02*
X146609786Y-109469694D01*
X147085977Y-110469694D02*
X147085977Y-109469694D01*
X147085977Y-109469694D02*
X147324072Y-109469694D01*
X147324072Y-109469694D02*
X147466929Y-109517313D01*
X147466929Y-109517313D02*
X147562167Y-109612551D01*
X147562167Y-109612551D02*
X147609786Y-109707789D01*
X147609786Y-109707789D02*
X147657405Y-109898265D01*
X147657405Y-109898265D02*
X147657405Y-110041122D01*
X147657405Y-110041122D02*
X147609786Y-110231598D01*
X147609786Y-110231598D02*
X147562167Y-110326836D01*
X147562167Y-110326836D02*
X147466929Y-110422075D01*
X147466929Y-110422075D02*
X147324072Y-110469694D01*
X147324072Y-110469694D02*
X147085977Y-110469694D01*
D11*
X166697066Y-97829019D02*
X166697066Y-98543304D01*
X166697066Y-98543304D02*
X166649447Y-98686161D01*
X166649447Y-98686161D02*
X166554209Y-98781400D01*
X166554209Y-98781400D02*
X166411352Y-98829019D01*
X166411352Y-98829019D02*
X166316114Y-98829019D01*
X167697066Y-98829019D02*
X167125638Y-98829019D01*
X167411352Y-98829019D02*
X167411352Y-97829019D01*
X167411352Y-97829019D02*
X167316114Y-97971876D01*
X167316114Y-97971876D02*
X167220876Y-98067114D01*
X167220876Y-98067114D02*
X167125638Y-98114733D01*
X126224819Y-97433333D02*
X126939104Y-97433333D01*
X126939104Y-97433333D02*
X127081961Y-97480952D01*
X127081961Y-97480952D02*
X127177200Y-97576190D01*
X127177200Y-97576190D02*
X127224819Y-97719047D01*
X127224819Y-97719047D02*
X127224819Y-97814285D01*
X126558152Y-96528571D02*
X127224819Y-96528571D01*
X126177200Y-96766666D02*
X126891485Y-97004761D01*
X126891485Y-97004761D02*
X126891485Y-96385714D01*
D12*
%TO.C,J1*%
X157750000Y-94670000D02*
X157750000Y-97330000D01*
X165430000Y-94670000D02*
X157750000Y-94670000D01*
X165430000Y-94670000D02*
X165430000Y-97330000D01*
X165430000Y-97330000D02*
X157750000Y-97330000D01*
X166700000Y-94670000D02*
X168030000Y-94670000D01*
X168030000Y-94670000D02*
X168030000Y-96000000D01*
%TO.C,J4*%
X127770000Y-98430000D02*
X127770000Y-97100000D01*
X129100000Y-98430000D02*
X127770000Y-98430000D01*
X130370000Y-95770000D02*
X138050000Y-95770000D01*
X130370000Y-98430000D02*
X130370000Y-95770000D01*
X130370000Y-98430000D02*
X138050000Y-98430000D01*
X138050000Y-98430000D02*
X138050000Y-95770000D01*
%TD*%
M02*
